<svg width="37" height="37" viewBox="0 0 37 37" fill="none" xmlns="http://www.w3.org/2000/svg">
<path d="M18.2512 36.3892C8.41621 36.3892 0.443848 28.4168 0.443848 18.5818C0.443848 8.74678 8.41621 0.774414 18.2512 0.774414C28.0862 0.774414 36.0586 8.74678 36.0586 18.5818C36.0586 28.4168 28.0862 36.3892 18.2512 36.3892ZM16.4705 25.7047V29.2662H20.032V25.7047H21.8127C22.6395 25.7047 23.4499 25.4745 24.1532 25.0399C24.8565 24.6052 25.4248 23.9833 25.7945 23.2438C26.1643 22.5043 26.3208 21.6765 26.2465 20.8531C26.1723 20.0297 25.8702 19.2432 25.3742 18.5818C25.8702 17.9204 26.1723 17.1339 26.2465 16.3105C26.3208 15.4871 26.1643 14.6592 25.7945 13.9198C25.4248 13.1803 24.8565 12.5584 24.1532 12.1237C23.4499 11.6891 22.6395 11.4588 21.8127 11.4588H20.032V7.89736H16.4705V11.4588H11.1283V25.7047H16.4705ZM14.6897 20.3625H21.8127C22.0488 20.3625 22.2753 20.4563 22.4423 20.6233C22.6093 20.7903 22.7031 21.0168 22.7031 21.2529C22.7031 21.489 22.6093 21.7155 22.4423 21.8825C22.2753 22.0495 22.0488 22.1433 21.8127 22.1433H14.6897V20.3625ZM14.6897 15.0203H21.8127C22.0488 15.0203 22.2753 15.1141 22.4423 15.2811C22.6093 15.4481 22.7031 15.6745 22.7031 15.9107C22.7031 16.1468 22.6093 16.3733 22.4423 16.5403C22.2753 16.7072 22.0488 16.8011 21.8127 16.8011H14.6897V15.0203Z" fill="#DABB1A"/>
</svg>
