<svg width="48" height="40" viewBox="0 0 48 40" fill="none" xmlns="http://www.w3.org/2000/svg">
<path d="M4.5033 33.9239L17.2305 21.0671L24.1083 27.6523L32.5144 20.3041L37.1972 24.8698M46.1969 4.62506C46.1969 3.79339 45.8665 2.99579 45.2785 2.40771C44.6904 1.81964 43.8928 1.48926 43.0611 1.48926H7.52203C6.69037 1.48926 5.89276 1.81964 5.30469 2.40771C4.71661 2.99579 4.38623 3.79339 4.38623 4.62506V14.0325H46.1969V4.62506Z" stroke="white" stroke-width="2.545" stroke-linecap="round" stroke-linejoin="round"/>
<path d="M46.1969 11.9418V31.8019C46.1969 32.6335 45.8665 33.4311 45.2785 34.0192C44.6904 34.6073 43.8928 34.9377 43.0611 34.9377H12.7484M20.1823 7.76074H38.9971M11.8181 7.76074H13.9086M4.38623 11.9418V21.3492" stroke="white" stroke-width="2.545" stroke-linecap="round" stroke-linejoin="round"/>
<circle cx="5.47682" cy="30.9382" r="4.60523" fill="#A333FF"/>
<path d="M7.91145 32.1712H6.07905V34.052H4.79928V32.1712H2.96688V30.9883H4.79928V29.1075H6.07905V30.9883H7.91145V32.1712Z" fill="white"/>
</svg>
