<svg width="51" height="38" viewBox="0 0 51 38" fill="none" xmlns="http://www.w3.org/2000/svg">
<path d="M43.8066 33.9663V28.8448C43.8066 27.5735 43.5099 26.4203 42.9164 25.3851C42.323 24.3499 41.4987 23.578 40.4436 23.0695C38.0368 21.9072 35.869 21.0718 33.9402 20.5633C32.0114 20.0548 30.0249 19.8005 27.9808 19.8005C25.9366 19.8005 23.9583 20.0548 22.046 20.5633C20.1337 21.0718 17.9742 21.9072 15.5673 23.0695C14.5123 23.578 13.6798 24.3499 13.0698 25.3851C12.4598 26.4203 12.1549 27.5735 12.1549 28.8448V33.9663H43.8066ZM9.18751 33.9663V28.8448C9.18751 26.5565 9.71504 24.6768 10.7701 23.2057C11.8252 21.7347 13.2099 20.5451 14.9244 19.637C12.6494 19.9276 10.5063 20.3544 8.49513 20.9174C6.48392 21.4804 4.85188 22.1251 3.599 22.8516C2.51096 23.5417 1.65373 24.3953 1.02729 25.4123C0.400845 26.4294 0.0876274 27.5735 0.0876274 28.8448V33.9663H9.18751ZM27.9808 16.477C30.1568 16.477 31.9372 15.7142 33.322 14.1887C34.7068 12.6631 35.3991 10.7017 35.3991 8.30441C35.3991 5.90712 34.7068 3.9457 33.322 2.42016C31.9372 0.89461 30.1568 0.131836 27.9808 0.131836C25.8047 0.131836 24.0243 0.89461 22.6395 2.42016C21.2547 3.9457 20.5624 5.90712 20.5624 8.30441C20.5624 10.7017 21.2547 12.6631 22.6395 14.1887C24.0243 15.7142 25.8047 16.477 27.9808 16.477ZM10.1766 8.30441C10.1766 10.7017 10.869 12.6631 12.2538 14.1887C13.6385 15.7142 15.419 16.477 17.595 16.477C17.9577 16.477 18.3616 16.4497 18.8067 16.3953C19.2518 16.3408 19.6557 16.2409 20.0184 16.0956C19.2271 15.1875 18.6253 14.0706 18.2132 12.7448C17.8011 11.4191 17.595 9.93893 17.595 8.30441C17.595 6.6699 17.8011 5.22607 18.2132 3.97295C18.6253 2.71982 19.2271 1.56658 20.0184 0.513223C19.6557 0.404256 19.2518 0.313449 18.8067 0.240804C18.3616 0.168159 17.9577 0.131836 17.595 0.131836C15.419 0.131836 13.6385 0.89461 12.2538 2.42016C10.869 3.9457 10.1766 5.90712 10.1766 8.30441Z" fill="#BDB5B5"/>
<path d="M41.8135 23.5479L47.5972 34.05H36.0298L41.8135 23.5479Z" fill="white"/>
<path d="M32.73 35.4262L41.7327 19.876L50.7355 35.4262H32.73ZM41.8146 33.0323C41.9919 33.0323 42.1386 32.9743 42.2545 32.8584C42.3704 32.7424 42.4284 32.5958 42.4284 32.4185C42.4284 32.2411 42.3704 32.0945 42.2545 31.9786C42.1386 31.8626 41.9919 31.8046 41.8146 31.8046C41.6373 31.8046 41.4906 31.8626 41.3747 31.9786C41.2587 32.0945 41.2008 32.2411 41.2008 32.4185C41.2008 32.5958 41.2587 32.7424 41.3747 32.8584C41.4906 32.9743 41.6373 33.0323 41.8146 33.0323ZM41.2008 30.7611H42.4284V26.1779H41.2008V30.7611Z" fill="#C80808"/>
</svg>
