<svg width="37" height="36" viewBox="0 0 37 36" fill="none" xmlns="http://www.w3.org/2000/svg">
<path d="M22.1104 35.181C21.5749 35.7166 20.9277 35.9844 20.169 35.9844C19.4103 35.9844 18.7631 35.7166 18.2276 35.181L1.49114 18.4446C1.1936 18.1471 0.992767 17.8346 0.888629 17.5074C0.784491 17.1801 0.732422 16.8379 0.732422 16.4809V2.91318C0.732422 2.13959 0.985328 1.49988 1.49114 0.99407C1.99695 0.488258 2.63666 0.235352 3.41025 0.235352H16.9779C17.335 0.235352 17.692 0.287421 18.0491 0.391558C18.4061 0.495696 18.7334 0.696533 19.0309 0.99407L35.6781 17.6412C36.2434 18.2066 36.5261 18.8686 36.5261 19.6273C36.5261 20.386 36.2434 21.048 35.6781 21.6134L22.1104 35.181ZM8.09645 9.87554C8.72128 9.87554 9.26428 9.64495 9.72546 9.18376C10.1866 8.72258 10.4172 8.17958 10.4172 7.55475C10.4172 6.92992 10.1866 6.38692 9.72546 5.92574C9.26428 5.46456 8.72128 5.23397 8.09645 5.23397C7.47163 5.23397 6.92862 5.46456 6.46744 5.92574C6.00626 6.38692 5.77567 6.92992 5.77567 7.55475C5.77567 8.17958 6.00626 8.72258 6.46744 9.18376C6.92862 9.64495 7.47163 9.87554 8.09645 9.87554Z" fill="#63B03F"/>
</svg>
