<svg width="37" height="37" viewBox="0 0 37 37" fill="none" xmlns="http://www.w3.org/2000/svg">
<path d="M18.2974 36.4258C15.8702 36.4258 13.5762 35.9596 11.4155 35.0272C9.25468 34.0948 7.36771 32.822 5.75453 31.2088C4.14135 29.5957 2.86857 27.7087 1.93618 25.5479C1.00379 23.3872 0.537598 21.0932 0.537598 18.666C0.537598 16.2092 1.00379 13.9079 1.93618 11.7619C2.86857 9.61594 4.14135 7.73636 5.75453 6.12318C7.36771 4.51 9.25468 3.23722 11.4155 2.30483C13.5762 1.37244 15.8702 0.90625 18.2974 0.90625C20.7541 0.90625 23.0555 1.37244 25.2015 2.30483C27.3474 3.23722 29.227 4.51 30.8402 6.12318C32.4534 7.73636 33.7262 9.61594 34.6585 11.7619C35.5909 13.9079 36.0571 16.2092 36.0571 18.666C36.0571 21.0932 35.5909 23.3872 34.6585 25.5479C33.7262 27.7087 32.4534 29.5957 30.8402 31.2088C29.227 32.822 27.3474 34.0948 25.2015 35.0272C23.0555 35.9596 20.7541 36.4258 18.2974 36.4258ZM27.3992 14.5369L30.4628 13.4713L31.262 10.6297C30.2556 9.06094 29.0124 7.72156 27.5324 6.61157C26.0525 5.50159 24.3801 4.6506 22.5153 4.05861L19.6293 5.96778V9.07574L27.3992 14.5369ZM9.23988 14.5369L16.9654 9.07574V5.96778L14.1238 4.05861C12.259 4.6506 10.5867 5.50159 9.10668 6.61157C7.6267 7.72156 6.38352 9.06094 5.37713 10.6297L6.35392 13.4713L9.23988 14.5369ZM6.84231 28.7447L9.50628 28.4339L11.2379 25.5479L8.48509 17.0676L5.33273 16.0021L3.20156 17.7336C3.20156 19.8648 3.43836 21.811 3.91195 23.5722C4.38555 25.3333 5.36233 27.0575 6.84231 28.7447ZM18.2974 33.7618C19.0966 33.7618 19.9031 33.6878 20.7171 33.5398C21.5311 33.3918 22.3821 33.1994 23.2701 32.9626L24.7353 29.7659L23.3145 27.3239H13.3246L11.9038 29.7659L13.369 32.9626C14.1386 33.1994 14.9526 33.3918 15.811 33.5398C16.6694 33.6878 17.4982 33.7618 18.2974 33.7618ZM13.591 24.6599H22.8261L25.5345 16.5348L18.2974 11.3401L10.9271 16.5348L13.591 24.6599ZM29.7968 28.7447C31.2472 27.0575 32.2092 25.3333 32.6828 23.5722C33.1564 21.811 33.3932 19.8648 33.3932 17.7336L31.262 16.2684L28.154 17.0676L25.4013 25.5479L27.0884 28.4339L29.7968 28.7447Z" fill="white"/>
</svg>
