<svg width="36" height="37" viewBox="0 0 36 37" fill="none" xmlns="http://www.w3.org/2000/svg">
<path d="M21.4923 35.6068C20.9567 36.1424 20.3096 36.4102 19.5508 36.4102C18.7921 36.4102 18.145 36.1424 17.6094 35.6068L0.872976 18.8704C0.575439 18.5728 0.374602 18.2604 0.270465 17.9331C0.166327 17.6058 0.114258 17.2637 0.114258 16.9066V3.33896C0.114258 2.56537 0.367164 1.92566 0.872976 1.41985C1.37879 0.914039 2.01849 0.661133 2.79209 0.661133H16.3598C16.7168 0.661133 17.0738 0.713202 17.4309 0.81734C17.7879 0.921478 18.1152 1.12231 18.4128 1.41985L35.0599 18.067C35.6253 18.6323 35.9079 19.2944 35.9079 20.0531C35.9079 20.8118 35.6253 21.4738 35.0599 22.0391L21.4923 35.6068ZM7.47829 10.3013C8.10312 10.3013 8.64612 10.0707 9.1073 9.60955C9.56848 9.14836 9.79907 8.60536 9.79907 7.98053C9.79907 7.35571 9.56848 6.8127 9.1073 6.35152C8.64612 5.89034 8.10312 5.65975 7.47829 5.65975C6.85346 5.65975 6.31046 5.89034 5.84928 6.35152C5.38809 6.8127 5.1575 7.35571 5.1575 7.98053C5.1575 8.60536 5.38809 9.14836 5.84928 9.60955C6.31046 10.0707 6.85346 10.3013 7.47829 10.3013Z" fill="#C27E3F"/>
</svg>
