<svg viewBox="0 0 36 36" fill="none" xmlns="http://www.w3.org/2000/svg">
<path d="M16.3581 30.5264H18.7831V28.2336C20.5762 28.0279 21.9724 27.4767 22.9718 26.5802C23.9712 25.6837 24.4709 24.4858 24.4709 22.9867C24.4709 21.4876 24.0447 20.2677 23.1923 19.3271C22.3398 18.3865 20.8995 17.4899 18.8713 16.6375C17.1664 15.932 15.9318 15.3 15.1676 14.7416C14.4033 14.1831 14.0212 13.4335 14.0212 12.4929C14.0212 11.5816 14.3519 10.8615 15.0133 10.3324C15.6746 9.80327 16.5785 9.53872 17.7249 9.53872C18.6067 9.53872 19.371 9.74448 20.0177 10.156C20.6644 10.5675 21.2082 11.1848 21.6491 12.0079L23.7655 10.9938C23.2658 9.96494 22.6044 9.15659 21.7813 8.5687C20.9583 7.98081 19.9883 7.62808 18.8713 7.5105V5.26182H16.4462V7.5105C14.9471 7.71626 13.764 8.26741 12.8969 9.16394C12.0297 10.0605 11.5961 11.1701 11.5961 12.4929C11.5961 13.9332 12.0371 15.0796 12.9189 15.932C13.8007 16.7845 15.1235 17.5781 16.8872 18.313C18.8566 19.136 20.2087 19.8782 20.9436 20.5396C21.6785 21.201 22.0459 22.0167 22.0459 22.9867C22.0459 23.9273 21.6564 24.6843 20.8775 25.2574C20.0985 25.8306 19.1211 26.1172 17.9454 26.1172C16.799 26.1172 15.7775 25.7939 14.881 25.1472C13.9844 24.5005 13.3598 23.6187 13.0071 22.5017L10.7584 23.2513C11.3757 24.6034 12.1326 25.669 13.0291 26.4479C13.9257 27.2269 15.0353 27.7927 16.3581 28.1455V30.5264ZM17.6367 35.5088C15.2264 35.5088 12.9483 35.0458 10.8025 34.1199C8.65669 33.194 6.78279 31.93 5.18079 30.328C3.57878 28.726 2.31482 26.8521 1.38889 24.7063C0.462964 22.5605 0 20.2824 0 17.8721C0 15.4323 0.462964 13.1396 1.38889 10.9938C2.31482 8.84795 3.57878 6.9814 5.18079 5.39409C6.78279 3.80679 8.65669 2.55017 10.8025 1.62424C12.9483 0.698315 15.2264 0.235352 17.6367 0.235352C20.0765 0.235352 22.3692 0.698315 24.515 1.62424C26.6608 2.55017 28.5274 3.80679 30.1147 5.39409C31.702 6.9814 32.9586 8.84795 33.8845 10.9938C34.8105 13.1396 35.2734 15.4323 35.2734 17.8721C35.2734 20.2824 34.8105 22.5605 33.8845 24.7063C32.9586 26.8521 31.702 28.726 30.1147 30.328C28.5274 31.93 26.6608 33.194 24.515 34.1199C22.3692 35.0458 20.0765 35.5088 17.6367 35.5088Z" fill="#DABB1A"/>
</svg>
