<svg viewBox="0 0 43 36" fill="none" xmlns="http://www.w3.org/2000/svg">
<path d="M19.2397 17.5054C16.7068 17.5054 14.6344 16.6995 13.0225 15.0876C11.4107 13.4757 10.6047 11.4033 10.6047 8.87038C10.6047 6.33744 11.4107 4.26503 13.0225 2.65316C14.6344 1.04129 16.7068 0.235352 19.2397 0.235352C21.7727 0.235352 23.8451 1.04129 25.457 2.65316C27.0688 4.26503 27.8748 6.33744 27.8748 8.87038C27.8748 11.4033 27.0688 13.4757 25.457 15.0876C23.8451 16.6995 21.7727 17.5054 19.2397 17.5054ZM0.818359 35.9844V30.5731C0.818359 29.1147 1.18295 27.8674 1.91213 26.8312C2.64131 25.795 3.58157 25.0083 4.7329 24.471C7.30422 23.3197 9.77 22.4561 12.1302 21.8805C14.4905 21.3048 16.8603 21.017 19.2397 21.017C21.6192 21.017 23.9794 21.3144 26.3205 21.9093C28.6615 22.5041 31.1177 23.358 33.689 24.471C34.8787 25.0083 35.8382 25.795 36.5674 26.8312C37.2965 27.8674 37.6611 29.1147 37.6611 30.5731V35.9844H0.818359Z" fill="white"/>
<circle cx="37.6609" cy="27.7563" r="4.396" fill="#1ABB00" stroke="#DBDBDB"/>
</svg>
