<svg width="32" height="37" viewBox="0 0 32 37" fill="none" xmlns="http://www.w3.org/2000/svg">
<path d="M31.1972 21.4944V36.2944H20.0972V33.3344H10.4772V36.2944H0.117188V21.4944H31.1972ZM24.4994 18.7971C24.0747 16.9404 23.1164 15.308 21.606 14.0604C20.1431 12.8446 18.4122 12.6144 16.4046 11.8744H16.3972V7.19169L16.7849 7.08735L17.6337 6.77285C17.9601 6.66259 18.2553 6.57009 18.5632 6.50497C18.8651 6.43319 19.0745 6.40285 19.2181 6.40285C19.497 6.40285 19.85 6.44725 20.2629 6.53753C20.6833 6.63965 21.131 6.74991 21.5861 6.87497C22.0604 7.01853 22.4837 7.12731 22.8944 7.21981C23.2858 7.30935 23.6137 7.34635 23.8852 7.34635C24.3174 7.34709 24.5372 7.28715 25.2772 7.15543V1.79635C24.5372 1.97247 24.4062 2.06941 23.8845 2.06941C23.6129 2.06941 23.277 2.02797 22.8848 1.92881C22.4755 1.85037 22.0537 1.72827 21.5794 1.59063C21.1565 1.46366 20.7287 1.35356 20.297 1.26059C19.8952 1.16513 19.6339 1.11925 19.3498 1.11925C18.4078 1.11925 17.1372 1.34199 16.3972 1.75269V0.774414H14.9172V11.8744H14.8706C12.8785 12.6144 11.1343 12.8867 9.67281 14.1025C8.19133 15.3517 7.22933 16.8783 6.77423 18.7357C6.77423 18.7357 5.35565 18.5344 5.35565 20.0144H26.0534C26.0534 18.5344 24.4994 18.7971 24.4994 18.7971Z" fill="#5FAFDC"/>
</svg>
